<svg width="118" height="36" viewBox="0 0 118 36" fill="none" xmlns="http://www.w3.org/2000/svg">
<rect width="118" height="36" rx="6" fill="white" fill-opacity="0.2"/>
<rect x="6" y="6" width="24" height="24" rx="6" fill="#202020"/>
<path d="M14.3406 11.5313H21.545C22.3812 11.5313 23.1832 11.8528 23.7745 12.4252C24.3658 12.9976 24.6979 13.7739 24.6979 14.5834H11.1836C11.1836 14.1823 11.2653 13.7851 11.424 13.4145C11.5827 13.0439 11.8153 12.7073 12.1085 12.4238C12.4017 12.1404 12.7498 11.9156 13.1328 11.7625C13.5158 11.6093 13.9262 11.5307 14.3406 11.5313Z" fill="#FFEE32"/>
<path d="M23.1194 16.1719H12.7621C11.8903 16.1719 11.1836 16.8539 11.1836 17.6951V18.4333C11.1836 19.2746 11.8903 19.9566 12.7621 19.9566H23.1194C23.9912 19.9566 24.6979 19.2746 24.6979 18.4333V17.6951C24.6979 16.8539 23.9912 16.1719 23.1194 16.1719Z" fill="#FFEE32"/>
<path d="M10.9414 21.4219H25.0591C25.0596 21.8235 24.9784 22.2213 24.8202 22.5923C24.662 22.9634 24.4299 23.3004 24.1372 23.584C23.8445 23.8676 23.497 24.0923 23.1147 24.245C22.7323 24.3977 22.3227 24.4756 21.9093 24.474H14.0831C13.6711 24.474 13.2631 24.3952 12.8824 24.242C12.5017 24.0888 12.1558 23.8643 11.8644 23.5812C11.5731 23.2982 11.342 22.9621 11.1843 22.5923C11.0266 22.2225 10.9454 21.8261 10.9454 21.4258L10.9414 21.4219Z" fill="#FFEE32"/>
<path d="M91.7953 30.738C91.8414 30.8278 91.8666 30.9263 91.869 31.0266C91.8545 31.242 91.7734 31.4481 91.6363 31.6181C91.4992 31.788 91.3124 31.9139 91.1004 31.9792C89.0984 32.6684 86.9267 32.7451 84.8785 32.1988C82.7794 31.6481 80.8709 30.5616 79.3513 29.0524C77.6011 27.3668 75.9745 25.5638 74.2927 23.8118C74.2405 23.7578 74.1727 23.7203 74.0981 23.7044C74.0236 23.6884 73.9459 23.6946 73.8751 23.7222C73.8042 23.7498 73.7437 23.7975 73.7012 23.859C73.6588 23.9206 73.6365 23.9931 73.6373 24.0672V28.0385C73.6373 28.3095 73.5264 28.5693 73.329 28.7609C73.1315 28.9525 72.8638 29.0601 72.5845 29.0601H72.5372C72.2579 29.0601 71.9902 28.9525 71.7927 28.7609C71.5953 28.5693 71.4844 28.3095 71.4844 28.0385V18.589C71.4844 18.3181 71.5953 18.0582 71.7927 17.8667C71.9902 17.6751 72.2579 17.5675 72.5372 17.5675C72.8164 17.5675 73.0842 17.6751 73.2816 17.8667C73.479 18.0582 73.5899 18.3181 73.5899 18.589V20.3436C73.5899 20.4176 73.6128 20.4899 73.6556 20.5512C73.6983 20.6125 73.759 20.6599 73.8298 20.6874C73.9007 20.7149 73.9783 20.7211 74.0529 20.7054C74.1274 20.6896 74.1953 20.6526 74.2479 20.599L76.9194 17.8509C77.0104 17.7574 77.1201 17.6829 77.2419 17.6319C77.3636 17.581 77.4948 17.5547 77.6274 17.5547H77.6616C77.8695 17.5555 78.0725 17.6161 78.245 17.7287C78.4174 17.8413 78.5517 18.001 78.6308 18.1876C78.7099 18.3741 78.7303 18.5792 78.6894 18.777C78.6486 18.9748 78.5483 19.1564 78.4012 19.299L75.6034 21.9857C75.6429 22.024 75.7166 22.1952 75.7403 22.2181C77.8458 24.3915 79.833 26.69 82.0938 28.7128C84.7705 31.1032 88.0079 31.66 91.5057 30.549C91.5675 30.5507 91.6275 30.5694 91.6787 30.6028C91.73 30.6363 91.7704 30.6832 91.7953 30.738Z" fill="#FFEE32"/>
<path d="M103.034 29.0733H102.77C102.512 29.072 102.265 28.9715 102.083 28.794C101.901 28.6164 101.799 28.3762 101.799 28.1258V27.9215C101.799 27.7183 101.716 27.5234 101.568 27.3797C101.42 27.236 101.219 27.1553 101.01 27.1553H97.4117C97.2023 27.1553 97.0015 27.236 96.8534 27.3797C96.7053 27.5234 96.6221 27.7183 96.6221 27.9215V28.1028C96.6221 28.2272 96.5969 28.3505 96.5478 28.4654C96.4987 28.5804 96.4268 28.6848 96.3361 28.7728C96.2454 28.8608 96.1378 28.9306 96.0193 28.9782C95.9009 29.0258 95.7739 29.0503 95.6457 29.0503H95.4035C95.1461 29.0503 94.8992 28.9515 94.7168 28.7754C94.5343 28.5992 94.4311 28.3602 94.4297 28.1105C94.4297 27.3979 94.4297 26.6854 94.4297 25.9728C94.4797 24.0855 94.6534 22.2211 95.5325 20.4794C96.1251 19.2607 97.0625 18.2306 98.2355 17.5092C98.5266 17.3346 98.8619 17.2422 99.2041 17.2422C99.5462 17.2422 99.8816 17.3346 100.173 17.5092C100.963 17.9884 101.646 18.6173 102.181 19.3582C103.057 20.5046 103.594 21.8607 103.736 23.281C103.881 24.8696 103.936 26.4632 104 28.09C104.004 28.2166 103.983 28.3428 103.937 28.4613C103.891 28.5797 103.821 28.6879 103.731 28.7796C103.64 28.8713 103.532 28.9445 103.413 28.9949C103.293 29.0454 103.164 29.072 103.034 29.0733ZM98.5303 19.9175C97.3775 20.8216 96.7037 22.6119 96.6879 24.5146C96.6879 24.65 96.7434 24.7799 96.8421 24.8757C96.9408 24.9715 97.0747 25.0253 97.2143 25.0253H101.194C101.333 25.0253 101.467 24.9715 101.566 24.8757C101.665 24.7799 101.72 24.65 101.72 24.5146C101.72 22.8137 101.083 20.8548 99.8463 19.8945C99.6569 19.7527 99.4233 19.6777 99.1841 19.6819C98.9449 19.686 98.7143 19.7692 98.5303 19.9175Z" fill="#FFEE32"/>
<path d="M84.2639 26.5432L84.2929 26.5152C84.4772 26.3163 84.7346 26.1956 85.0097 26.1789C85.2848 26.1622 85.5557 26.2508 85.7641 26.4258C85.8975 26.5381 86.0344 26.6454 86.1747 26.7476C86.7511 27.1613 87.3117 27.5827 88.0539 27.4295C88.3472 27.3607 88.6162 27.2172 88.8332 27.0138C89.0502 26.8104 89.2073 26.5545 89.2883 26.2725C89.3682 26.0265 89.3647 25.7621 89.2786 25.5181C89.1924 25.274 89.0279 25.0632 88.8093 24.9164C88.2829 24.5308 87.725 24.209 87.1828 23.854C86.5108 23.4596 85.864 23.0263 85.2456 22.5566C84.2218 21.6959 83.9454 20.5799 84.3639 19.331C84.7824 18.0821 85.7799 17.4973 87.0591 17.3006C88.1848 17.1328 89.3342 17.3856 90.2753 18.0081C90.5114 18.15 90.6802 18.3768 90.7448 18.6389C90.8093 18.9011 90.7645 19.1774 90.6201 19.4076C90.4837 19.6284 90.2663 19.791 90.0116 19.863C89.7569 19.935 89.4835 19.911 89.2462 19.7958C89.1572 19.7479 89.0649 19.7061 88.9699 19.6707C88.5119 19.5021 88.0039 19.3054 87.5381 19.3489C87.3093 19.3511 87.0878 19.4278 86.9093 19.5668C86.7309 19.7057 86.6056 19.8988 86.5537 20.115C86.5224 20.3163 86.5538 20.522 86.6439 20.7059C86.7339 20.8897 86.8785 21.0433 87.0591 21.1468C87.7144 21.535 88.3961 21.8823 89.0409 22.2859C90.0937 22.9448 91.1018 23.6752 91.4702 24.9266C92.0966 27.0489 90.5438 29.1227 88.1855 29.3347C86.6064 29.4803 85.3641 28.9235 84.3034 27.9453C84.1136 27.7607 84.0038 27.5126 83.9965 27.2519C83.9891 26.9912 84.0848 26.7377 84.2639 26.5432Z" fill="#FFEE32"/>
<path d="M44.1873 21.7306H46.1534C46.4228 21.7306 46.6812 21.8345 46.8718 22.0194C47.0623 22.2043 47.1693 22.455 47.1693 22.7165V22.7471C47.1693 23.0086 47.0623 23.2593 46.8718 23.4442C46.6812 23.6291 46.4228 23.7329 46.1534 23.7329H44.1715C43.9021 23.7329 43.6437 23.8368 43.4531 24.0217C43.2626 24.2065 43.1556 24.4573 43.1556 24.7187V28.0669C43.1559 28.1963 43.13 28.3244 43.0792 28.444C43.0284 28.5636 42.9539 28.6723 42.8597 28.7638C42.7656 28.8554 42.6538 28.9281 42.5307 28.9776C42.4075 29.0272 42.2756 29.0527 42.1423 29.0527H42.0159C41.7465 29.0527 41.4881 28.9489 41.2976 28.764C41.107 28.5791 41 28.3284 41 28.0669V18.5536C41 18.4242 41.0263 18.2962 41.0774 18.1767C41.1285 18.0572 41.2033 17.9487 41.2977 17.8574C41.3921 17.7661 41.5041 17.6937 41.6274 17.6444C41.7506 17.5952 41.8826 17.57 42.0159 17.5703H46.6824C46.8157 17.57 46.9478 17.5952 47.071 17.6444C47.1942 17.6937 47.3063 17.7661 47.4006 17.8574C47.495 17.9487 47.5699 18.0572 47.621 18.1767C47.6721 18.2962 47.6984 18.4242 47.6984 18.5536C47.6977 18.8146 47.5903 19.0647 47.3999 19.249C47.2094 19.4333 46.9514 19.5368 46.6824 19.5368H44.1873C43.9179 19.5368 43.6595 19.6407 43.4689 19.8256C43.2784 20.0104 43.1714 20.2612 43.1714 20.5226V20.7448C43.171 20.8744 43.1971 21.0027 43.248 21.1225C43.2989 21.2422 43.3738 21.3511 43.4682 21.4427C43.5626 21.5343 43.6747 21.6069 43.7981 21.6563C43.9215 21.7057 44.0538 21.731 44.1873 21.7306Z" fill="#FFEE32"/>
<path d="M53.4836 27.0511H56.992C57.1282 27.0511 57.263 27.0771 57.3889 27.1277C57.5147 27.1782 57.629 27.2523 57.7253 27.3458C57.8216 27.4392 57.898 27.5501 57.9501 27.6722C58.0022 27.7943 58.029 27.9252 58.029 28.0573C58.0249 28.3229 57.9144 28.5766 57.7208 28.7644C57.5272 28.9523 57.2658 29.0596 56.992 29.0635H51.8807C51.6057 29.0635 51.342 28.9575 51.1475 28.7688C50.953 28.5801 50.8438 28.3242 50.8438 28.0573V18.6078C50.8438 18.3409 50.953 18.085 51.1475 17.8963C51.342 17.7076 51.6057 17.6016 51.8807 17.6016H51.9202C52.194 17.6055 52.4554 17.7128 52.649 17.9007C52.8426 18.0885 52.9531 18.3422 52.9572 18.6078V26.5505C52.96 26.6842 53.0166 26.8115 53.1151 26.9051C53.2135 26.9987 53.3458 27.0511 53.4836 27.0511Z" fill="#FFEE32"/>
<path d="M61.6818 17.5703H66.3667C66.9105 17.5703 67.432 17.7799 67.8165 18.153C68.201 18.5261 68.417 19.0322 68.417 19.5598H59.6289C59.6289 19.2983 59.682 19.0394 59.7852 18.7979C59.8884 18.5563 60.0397 18.3369 60.2304 18.1521C60.421 17.9673 60.6474 17.8209 60.8964 17.721C61.1455 17.6212 61.4124 17.57 61.6818 17.5703Z" fill="#FFEE32"/>
<path d="M67.3906 22.0781H60.6554C60.0885 22.0781 59.6289 22.5241 59.6289 23.0742V23.5568C59.6289 24.1069 60.0885 24.5529 60.6554 24.5529H67.3906C67.9575 24.5529 68.417 24.1069 68.417 23.5568V23.0742C68.417 22.5241 67.9575 22.0781 67.3906 22.0781Z" fill="#FFEE32"/>
<path d="M59.6289 27.0781H68.8539C68.8543 27.3403 68.8013 27.5999 68.6979 27.842C68.5945 28.0842 68.4428 28.3042 68.2516 28.4893C68.0603 28.6744 67.8332 28.821 67.5834 28.9207C67.3336 29.0204 67.0659 29.0712 66.7958 29.0702H61.6818C61.4126 29.0702 61.146 29.0187 60.8972 28.9187C60.6485 28.8188 60.4224 28.6722 60.2321 28.4875C60.0417 28.3027 59.8906 28.0834 59.7876 27.842C59.6846 27.6007 59.6315 27.3419 59.6315 27.0807L59.6289 27.0781Z" fill="#FFEE32"/>
<path d="M41.2907 13V5.95H44.2107C44.9707 5.95 45.5574 6.14 45.9707 6.52C46.384 6.89333 46.5907 7.42 46.5907 8.1C46.5907 8.78667 46.384 9.32 45.9707 9.7C45.5574 10.0733 44.9707 10.26 44.2107 10.26H42.3307V13H41.2907ZM42.3307 9.43H44.0607C45.074 9.43 45.5807 8.98667 45.5807 8.1C45.5807 7.22 45.074 6.78 44.0607 6.78H42.3307V9.43ZM49.4726 13.09C48.9792 13.09 48.5526 12.9867 48.1926 12.78C47.8326 12.5733 47.5526 12.2833 47.3526 11.91C47.1592 11.53 47.0626 11.08 47.0626 10.56C47.0626 10.04 47.1592 9.59333 47.3526 9.22C47.5526 8.84 47.8326 8.54667 48.1926 8.34C48.5526 8.13333 48.9792 8.03 49.4726 8.03C49.9526 8.03 50.3726 8.13333 50.7326 8.34C51.0926 8.54667 51.3726 8.84 51.5726 9.22C51.7726 9.59333 51.8726 10.04 51.8726 10.56C51.8726 11.08 51.7726 11.53 51.5726 11.91C51.3726 12.2833 51.0926 12.5733 50.7326 12.78C50.3726 12.9867 49.9526 13.09 49.4726 13.09ZM49.4726 12.31C49.8859 12.31 50.2192 12.16 50.4726 11.86C50.7259 11.56 50.8526 11.1267 50.8526 10.56C50.8526 9.99333 50.7259 9.56333 50.4726 9.27C50.2192 8.97 49.8859 8.82 49.4726 8.82C49.0526 8.82 48.7159 8.97 48.4626 9.27C48.2092 9.56333 48.0826 9.99333 48.0826 10.56C48.0826 11.1267 48.2092 11.56 48.4626 11.86C48.7159 12.16 49.0526 12.31 49.4726 12.31ZM54.239 13L52.379 8.12H53.419L54.729 11.82L56.079 8.12H56.859L58.189 11.84L59.519 8.12H60.509L58.649 13H57.729L56.439 9.51L55.159 13H54.239ZM63.5781 13.09C62.7781 13.09 62.1481 12.8667 61.6881 12.42C61.2281 11.9667 60.9981 11.35 60.9981 10.57C60.9981 10.07 61.0981 9.63 61.2981 9.25C61.5048 8.86333 61.7881 8.56333 62.1481 8.35C62.5081 8.13667 62.9215 8.03 63.3881 8.03C64.0615 8.03 64.5915 8.24667 64.9781 8.68C65.3648 9.10667 65.5581 9.69667 65.5581 10.45V10.79H61.9781C62.0515 11.8033 62.5881 12.31 63.5881 12.31C63.8681 12.31 64.1415 12.2667 64.4081 12.18C64.6815 12.0933 64.9381 11.95 65.1781 11.75L65.4781 12.45C65.2581 12.65 64.9748 12.8067 64.6281 12.92C64.2815 13.0333 63.9315 13.09 63.5781 13.09ZM63.4281 8.74C63.0081 8.74 62.6748 8.87 62.4281 9.13C62.1815 9.39 62.0315 9.73667 61.9781 10.17H64.7081C64.6881 9.71667 64.5681 9.36667 64.3481 9.12C64.1281 8.86667 63.8215 8.74 63.4281 8.74ZM66.6592 13V8.12H67.6392V8.99C67.8926 8.41 68.4192 8.08667 69.2192 8.02L69.5492 8L69.6192 8.86L69.0092 8.92C68.1226 9.00667 67.6792 9.46333 67.6792 10.29V13H66.6592ZM72.6113 13.09C71.8113 13.09 71.1813 12.8667 70.7213 12.42C70.2613 11.9667 70.0313 11.35 70.0313 10.57C70.0313 10.07 70.1313 9.63 70.3313 9.25C70.538 8.86333 70.8213 8.56333 71.1813 8.35C71.5413 8.13667 71.9547 8.03 72.4213 8.03C73.0947 8.03 73.6247 8.24667 74.0113 8.68C74.398 9.10667 74.5913 9.69667 74.5913 10.45V10.79H71.0113C71.0847 11.8033 71.6213 12.31 72.6213 12.31C72.9013 12.31 73.1747 12.2667 73.4413 12.18C73.7147 12.0933 73.9713 11.95 74.2113 11.75L74.5113 12.45C74.2913 12.65 74.008 12.8067 73.6613 12.92C73.3147 13.0333 72.9647 13.09 72.6113 13.09ZM72.4613 8.74C72.0413 8.74 71.708 8.87 71.4613 9.13C71.2147 9.39 71.0647 9.73667 71.0113 10.17H73.7413C73.7213 9.71667 73.6013 9.36667 73.3813 9.12C73.1613 8.86667 72.8547 8.74 72.4613 8.74ZM77.5524 13.09C77.1258 13.09 76.7491 12.99 76.4224 12.79C76.1024 12.5833 75.8524 12.29 75.6724 11.91C75.4924 11.53 75.4024 11.08 75.4024 10.56C75.4024 10.04 75.4924 9.59333 75.6724 9.22C75.8524 8.84 76.1024 8.54667 76.4224 8.34C76.7424 8.13333 77.1191 8.03 77.5524 8.03C77.9191 8.03 78.2458 8.11 78.5324 8.27C78.8191 8.43 79.0324 8.64667 79.1724 8.92V5.95H80.1824V13H79.1924V12.15C79.0524 12.4433 78.8358 12.6733 78.5424 12.84C78.2558 13.0067 77.9258 13.09 77.5524 13.09ZM77.8124 12.31C78.2258 12.31 78.5591 12.16 78.8124 11.86C79.0658 11.56 79.1924 11.1267 79.1924 10.56C79.1924 9.99333 79.0658 9.56333 78.8124 9.27C78.5591 8.97 78.2258 8.82 77.8124 8.82C77.3924 8.82 77.0558 8.97 76.8024 9.27C76.5491 9.56333 76.4224 9.99333 76.4224 10.56C76.4224 11.1267 76.5491 11.56 76.8024 11.86C77.0558 12.16 77.3924 12.31 77.8124 12.31ZM84.3376 13V5.95H87.2776C88.0109 5.95 88.5776 6.11333 88.9776 6.44C89.3842 6.76 89.5876 7.21 89.5876 7.79C89.5876 8.17 89.4876 8.49667 89.2876 8.77C89.0876 9.04333 88.8142 9.24333 88.4676 9.37C88.8742 9.47667 89.1909 9.67333 89.4176 9.96C89.6442 10.2467 89.7576 10.61 89.7576 11.05C89.7576 11.6767 89.5476 12.16 89.1276 12.5C88.7142 12.8333 88.1376 13 87.3976 13H84.3376ZM85.3376 9.03H87.1176C88.0909 9.03 88.5776 8.65 88.5776 7.89C88.5776 7.13 88.0909 6.75 87.1176 6.75H85.3376V9.03ZM85.3376 12.2H87.2776C88.2576 12.2 88.7476 11.8033 88.7476 11.01C88.7476 10.2233 88.2576 9.83 87.2776 9.83H85.3376V12.2ZM91.544 14.8L92.414 12.87L90.374 8.12H91.454L92.954 11.83L94.474 8.12H95.514L92.604 14.8H91.544Z" fill="white"/>
</svg>
